<?xml version="1.0" standalone="no"?>
<!DOCTYPE svg PUBLIC "-//W3C//DTD SVG 20010904//EN"
 "http://www.w3.org/TR/2001/REC-SVG-20010904/DTD/svg10.dtd">
<svg version="1.0" xmlns="http://www.w3.org/2000/svg"
 width="111.000000pt" height="111.000000pt" viewBox="0 0 111.000000 111.000000"
 preserveAspectRatio="xMidYMid meet">
<metadata>
Created by potrace 1.14, written by Peter Selinger 2001-2017
</metadata>
<g transform="translate(0.000000,111.000000) scale(0.100000,-0.100000)"
fill="#000000" stroke="none">
<path d="M0 561 l0 -547 78 1 77 0 1 388 c1 213 4 390 6 393 5 4 124 -280 274
-653 49 -120 49 -121 84 -125 19 -1 50 -1 69 2 39 6 19 -33 187 375 58 143
120 294 137 335 l32 75 5 -395 5 -395 78 0 77 -1 0 547 0 546 -102 -1 -101 -1
-102 -245 c-55 -135 -132 -322 -170 -415 -37 -94 -72 -174 -76 -179 -5 -5 -11
-1 -15 10 -4 10 -15 37 -24 59 -29 67 -292 708 -302 737 -12 34 -23 37 -130
36 l-88 -1 0 -546z"/>
</g>
</svg>
